<svg width="35" height="35" viewBox="0 0 35 35" fill="none" xmlns="http://www.w3.org/2000/svg">
<path d="M17.5 0C7.88189 0 0 7.95025 0 17.5684C0 27.1307 7.81006 35 17.5 35C27.1779 35 35 27.1424 35 17.5684C35 7.95025 27.1181 0 17.5 0ZM20.5762 32.6416C19.5919 32.8467 18.546 32.9492 17.5 32.9492C16.454 32.9492 15.4081 32.8467 14.4238 32.6416V27.8428C14.4238 26.6943 14.7314 26.2842 15.1416 25.7304C15.3504 25.4916 15.4765 25.2775 16.4129 23.8644L14.834 23.6182C10.7733 23.0235 9.17377 20.911 8.53798 19.2704C7.71767 17.0762 8.14838 14.328 9.62505 12.5851C9.85069 12.3183 10.0352 11.867 9.87125 11.3955C9.56337 10.452 9.60449 8.95508 9.80957 8.3807C10.8969 8.53611 12.015 9.31503 12.9474 9.87793C13.3771 10.1287 13.6024 10.0624 13.8086 10.083C14.5579 9.92706 15.7267 9.54975 17.5206 9.54975C18.6279 9.54975 19.797 9.71371 20.9455 10.0419C21.1508 10.0371 21.4809 10.2117 22.0528 9.87793C23.0275 9.28406 24.1076 8.53184 25.1904 8.3807C25.3955 8.95508 25.4366 10.452 25.129 11.3955C24.9648 11.867 25.1493 12.3183 25.3752 12.5851C26.8516 14.3282 27.2823 17.0762 26.462 19.2704C25.8262 20.911 24.2267 23.0235 20.166 23.6182L18.5871 23.8644C19.5551 25.325 19.6571 25.5002 19.8587 25.7304C20.2686 26.2842 20.5762 26.6943 20.5762 27.8428V32.6416ZM22.627 32.0469V27.8428C22.627 26.6738 22.3808 25.8946 22.0526 25.3202C25.1699 24.4796 27.3849 22.6336 28.3691 19.9882C29.4151 17.1993 28.9435 13.877 27.2001 11.58C27.508 10.2061 27.508 8.01167 26.7696 6.98627C26.4415 6.53526 25.9902 6.28906 25.4161 6.28906C25.3955 6.28906 25.3955 6.28906 25.3955 6.28906C23.8054 6.37505 22.5538 7.17587 21.212 7.9911C19.9815 7.66293 18.7305 7.49897 17.4794 7.49897C16.2081 7.49897 14.9365 7.68349 13.8089 7.9911C12.3963 7.13928 11.1567 6.37291 9.52251 6.28906C9.00982 6.28906 8.55854 6.53526 8.23036 6.98627C7.49229 8.01167 7.49229 10.2061 7.79991 11.58C6.05648 13.877 5.58491 17.2196 6.63086 19.9882C7.61513 22.6336 9.83013 24.4796 12.9474 25.3202C12.6929 25.7653 12.4916 26.3397 12.4123 27.117C11.7826 27.3341 11.2366 27.4049 10.7287 27.2556C10.193 27.0973 9.77566 26.7397 9.41303 26.1298C8.59859 24.7616 7.21138 23.6446 5.6319 23.7899L5.81215 25.8326C6.54354 25.7656 7.27146 26.5395 7.64957 27.1774C8.27335 28.2279 9.11369 28.9168 10.1479 29.2223C10.9156 29.4485 11.6174 29.4431 12.373 29.2818V32.0469C6.40522 29.955 2.05078 24.254 2.05078 17.5684C2.05078 9.07818 9.00982 2.05078 17.5 2.05078C25.9902 2.05078 32.9492 9.07818 32.9492 17.5684C32.9492 24.254 28.5948 29.955 22.627 32.0469Z" fill="#3D3D3D"/>
</svg>
