<svg width="256" height="687" viewBox="0 0 256 687" fill="none" xmlns="http://www.w3.org/2000/svg">
<path fill-rule="evenodd" clip-rule="evenodd" d="M5.7298 338.609C-0.524811 338.749 2.15716 280.391 6.33375 269.637C6.91861 267.458 7.4016 264.48 7.30433 261.805C2.13857 262.322 2.69471 258.786 2.96143 254.523C2.87381 251.137 2.63848 244.152 7.81968 246.872C23.3529 215.774 6.55774 135.385 47.4563 127.813C52.3845 126.616 57.4781 125.378 61.6274 121.961C66.0179 113.845 68.254 112.808 75.5292 112.283C76.8763 104.973 79.3944 97.1632 86.8984 94.3185C93.7687 91.6264 101.765 91.4116 108.929 92.8483C114.858 94.7823 115.4 105.804 116.718 111.238C124.704 109.12 134.546 104.666 138.845 114.763C140.927 114.141 142.857 114.545 144.973 115.237C162.709 118.095 179.916 126.118 186.494 142.859C190.557 152.905 187.674 163.841 186.15 174.246C184.729 185.575 188.476 196.071 190.213 206.969C192.8 221.975 193.268 234.011 191.58 245.165C196.042 246.18 196.371 250.238 194.565 254.484C194.035 255.921 193.501 257.436 192.329 258.249C189.945 259.75 186.863 258.02 184.272 257.755C183.733 263.748 182.689 269.627 180.963 276.31C181.463 278.31 182.036 280.544 182.551 282.553L182.725 282.364C188.641 307.144 206.236 331.214 200.767 357.55C200.446 358.427 199.836 358.245 199.367 358.229C196.652 359.262 194.159 358.606 191.422 358.712C184.928 358.716 178.655 359.548 172.836 360.272C171.772 367.221 168.314 378.598 162.146 381.248C162.042 381.283 160.214 380.902 160.061 380.891C176.48 447.467 206.023 509.029 217.757 576.947C217.827 577.776 216.478 577.337 216.036 577.438C216.096 579.322 214.879 579.775 213.174 580.446C215.371 585.039 217.35 589.627 219.538 594.232C220.552 596.512 222.205 598.764 222.506 601.201C224.928 602.748 226.559 605.773 226.515 608.597C233.045 611.357 231.271 624.989 232.76 631.741C234.267 641.8 241.432 648.825 246.345 657.072C247.346 658.728 248.413 660.897 248.46 662.976C251.506 664.404 252.641 667.523 252.44 672.773C252.451 678.916 250.718 681.255 246.046 681.403C233.356 682.671 218.548 682.155 205.785 680.713C196.237 679.499 187.776 680.506 189.911 669.033C190.35 666.256 189.506 662.516 191.15 660.268C192.164 653.577 191.574 646.833 189.389 640.222C188.06 634.656 185.815 623.159 186.745 615.689C187.176 612.234 194.228 610.333 195.47 610.165C195.075 607.564 195.249 603.02 196.648 601.213C194.078 600.854 193.432 600.175 192.897 597.321C191.618 592.699 191.448 587.681 188.281 583.787C182.586 583.86 176.909 582.415 171.216 582.239L170.933 581.585C167.566 581.542 164.218 580.947 161.022 579.781C160.313 580.116 159.406 580.404 159.008 579.331L157.107 573.386C134.977 502.96 110.446 432.363 86.5281 362.453C85.1319 359.054 83.4529 355.441 81.2694 352.412C80.5298 395.188 71.5691 437.918 70.7996 480.672C69.7597 510.085 70.0274 539.188 67.2607 568.705C66.5487 574.952 65.7917 574.745 64.8592 574.361C64.4856 574.42 63.6062 574.607 63.2246 574.688C63.8483 580.895 64.566 590.972 67.2281 597.321C73.1125 598.229 72.0586 602.744 70.7535 606.487C72.1573 607.686 71.9577 610.481 71.5411 612.028C77.0776 612.034 78.2847 616.537 77.9038 619.379C77.3772 624.131 77.6719 631.527 74.5006 635.586C72.6331 640.762 69.5932 645.647 68.4058 651.223C67.6595 655.326 67.9477 661.302 67.2281 665.372C69.0387 666.208 68.2715 667.52 68.5769 670.056C70.1441 681.669 64.6273 679.695 54.8727 680.495C49.026 681.786 4.51496 684.355 6.43851 676.629C6.11048 673.483 7.57371 672.101 8.20032 669.003C8.48177 668.181 14.0272 658.666 17.3349 655.064C28.4284 644.641 27.9439 630.647 27.5925 614.528C28.2449 610.159 31.6056 605.976 35.894 606.446C34.6627 601.78 36.945 597.723 41.7141 596.374C41.2376 591.091 40.7361 583.913 38.9921 579.343L40.6347 577.67L38.436 577.933L37.706 576.095L36.91 578.109C33.1353 578.109 28.8764 577.272 25.2605 576.878C24.6829 576.911 24.9407 576.126 24.8458 575.823C21.4313 575.116 21.0574 573.302 21.6608 568.979C20.8655 498.784 21.2107 429.248 22.2978 358.923C16.9614 359.161 11.7578 357.214 6.51359 355.917C4.65038 357.087 4.12246 352.923 4.34043 352.024C4.63612 347.371 5.2118 342.833 5.7298 338.609Z" fill="white"/>
<path fill-rule="evenodd" clip-rule="evenodd" d="M115.32 101.45C114.527 102.076 114.61 103.812 114.532 104.783L114.526 104.847C114.277 107.782 114.614 110.731 115.33 113.581L115.391 113.818C115.751 115.217 116.07 116.965 117.192 117.944C118.408 119.005 120.338 118.319 120.382 116.608C120.404 115.812 120.139 115.047 119.803 114.301C122.157 115.209 124.512 116.108 126.876 116.984C128.386 129.473 110.939 144.763 100.838 150.116C86.1275 158.258 73.7503 145.787 71.8674 131.125C71.5509 129.178 71.339 127.176 71.2976 125.202C71.2635 123.553 71.5993 121.251 70.4939 119.84C71.2769 119.822 71.9723 119.932 72.7391 120.052L72.7023 120.115C72.2677 120.892 71.6537 122.825 73.0288 122.972C75.9982 122.659 77.3792 117.454 78.1031 114.958C78.5738 113.258 79.2227 106.205 77.7863 105.374C77.3537 107.049 77.5239 108.869 76.9974 110.549C75.7995 111.031 73.5182 111.162 72.9899 111.251C66.8197 111.322 63.3212 115.751 60.8204 120.936C53.489 126.952 42.9508 125.918 35.0341 130.874C10.8087 148.433 18.7204 216.79 6.65411 245.871C4.23823 244.872 1.77584 246.873 1.45322 249.316C1.11964 251.194 1.21947 253.205 1.19269 255.108L1.18127 255.346C0.984038 259.238 0.310947 263.613 5.56818 263.698C5.5599 265.871 5.15084 267.974 4.62588 270.072C1.71475 282.768 0.444208 295.846 0.157623 308.861L0.143188 309.818C0.0485744 316.659 -0.0351613 337.823 3.89786 340.327L3.71466 341.817C3.25927 345.546 2.83031 349.283 2.59055 353.03C2.21314 354.975 3.49754 359.635 6.11844 358.402C10.9249 359.59 15.6651 361.344 20.6595 361.354C19.4494 401.609 20.0508 441.906 19.8721 482.178C20.2578 511.864 18.6527 541.795 20.0557 571.367L20.0049 571.785C19.6084 575.105 19.4893 577.993 23.3279 579.13C23.3832 579.942 24.0085 580.376 24.7501 580.471C26.8539 580.754 28.9576 581.023 31.0637 581.281C33.0258 581.427 35.1249 581.915 37.0803 581.683C36.8914 581.874 37.4047 581.903 37.4602 581.764C39.243 586.237 39.7604 591.113 40.2018 595.885C35.8746 597.534 33.5128 601.244 34.2194 605.895C29.8531 606.072 26.6644 610.923 26.0528 615.012C25.6608 617.833 25.9749 620.635 26.1012 623.461C26.7056 633.119 25.2858 643.525 19.0501 651.228L18.7901 651.537C14.7797 656.252 9.6952 660.573 7.96652 666.736C7.48685 666.96 7.0924 667.393 6.91952 668.07L5.79901 672.467L5.24188 674.666C4.83381 676.268 4.47123 677.908 4.69003 679.567L4.71304 679.728C5.8046 690.238 48.8946 685.172 57.3044 684.417C60.6852 683.887 64.3945 684.176 67.4384 682.386C71.172 679.922 71.639 674.924 70.9981 670.83L70.9449 670.446C70.6854 668.616 70.3053 666.696 68.5681 665.672C69.153 661.879 68.9266 657.998 69.6222 654.22C70.6729 648.873 73.8511 644.234 75.4734 639.101C77.8401 636.47 77.92 632.368 78.4148 629.003C78.7897 625.738 79.0965 622.451 79.2229 619.167C79.5665 614.826 77.6821 611.246 73.1165 610.679C73.3283 609.856 72.7486 609.145 72.1718 608.618C73.5329 603.784 73.9086 597.148 68.0032 595.499C65.7668 589.953 65.1165 583.944 64.5214 578.029C64.592 578.014 64.6626 578.002 64.7332 577.99C67.6745 579.214 68.2864 573.411 68.4829 571.141C71.2674 541.706 71.0111 512.097 72.0568 482.572L72.1591 480.437C73.0759 460.983 73.6214 441.359 76.986 422.165C80.3722 400.772 81.2575 379.03 82.415 357.412C83.7783 359.53 84.5115 361.963 85.6147 364.219C99.9308 406.276 114.62 448.206 128.773 490.32C139.031 520.81 148.831 551.463 158.661 582.096C159.163 583.664 160.743 583.989 161.899 583.487C164.843 584.508 167.933 585.088 171.042 585.188C171.23 585.619 171.615 585.934 172.177 585.873C173.84 585.691 175.754 586.21 177.417 586.404C181.222 586.78 184.916 587.364 188.756 587.419C191.135 590.426 191.285 594.504 192.381 598.084C193.013 599.908 192.914 604 195.094 604.514C194.312 605.718 194.21 607.163 194.337 608.653C193.659 608.807 192.971 609.098 192.333 609.396C191.712 609.711 190.891 609.684 190.463 610.317C178.284 612.524 187.184 635.648 189.301 643.296C191.379 649.549 192.029 656.08 191.081 662.607C189.632 664.609 190.117 667.586 189.896 669.958C189.779 672.076 189.564 674.225 189.584 676.345C189.82 685.15 200.692 683.718 206.825 684.86C210.655 685.306 214.502 685.616 218.35 685.857C228.107 686.464 237.918 686.51 247.655 685.567C253.942 685.367 255.294 681.267 255.284 675.658L255.294 675.425C255.435 671.618 254.822 667.022 251.206 665.042C251.026 663.031 250.005 661 248.963 659.242C244.118 651.097 236.844 643.959 235.413 634.185C234.01 627.786 235.6 613.7 229.095 610.364C228.944 607.483 227.174 604.545 224.982 602.988C224.559 600.588 222.966 598.381 221.98 596.176C219.969 591.965 218.109 587.687 216.109 583.472C217.156 583.029 218.269 582.214 218.415 581.057C219.421 581.07 220.414 580.42 220.293 579.196C219.937 575.644 219.16 572.151 218.426 568.66L218.335 568.223C205.275 505.1 178.308 446.073 162.53 383.759C164.653 384.143 166.638 381.716 167.811 380.135C171.602 375.031 173.841 368.855 174.826 362.589L176.608 362.369C182.551 361.639 188.523 361 194.516 361.172L195.96 361.22C197.564 361.269 199.171 361.256 200.697 360.679C201.761 360.777 202.869 360.206 203.131 359.012C207.57 336.894 196.66 315.903 188.846 295.917C187.005 291.003 185.695 286.017 184.446 280.929C184.405 280.764 184.147 280.798 184.154 280.968C184.398 286.625 185.8 292.33 187.225 297.783C191.902 316.273 201.648 334.405 199.265 353.98C191.859 348.148 183.063 344.096 173.823 342.382C173.29 340.066 172.7 337.766 172.257 335.435C172.693 331.85 172.99 328.249 173.37 324.647C174.505 313.874 176.238 303.127 178.549 292.544C182.133 281.894 185.263 271.101 186.382 259.872L186.586 259.912C189.071 260.417 191.809 261.512 194.115 259.929C195.579 258.914 196.212 257.233 196.803 255.618C198.492 251.703 198.804 246.556 194.025 244.919C195.807 232.47 194.649 219.474 192.496 207.141C190.771 196.331 186.989 185.681 188.405 174.615C189.977 163.98 192.908 152.843 188.671 142.433C181.707 125.06 164.073 116.818 146.73 114.165L146.449 114.083C144.304 113.448 142.35 112.778 140.115 113.259C134.842 103.476 126.291 107.455 117.94 109.635C117.376 107.976 116.907 106.279 116.465 104.583C116.189 103.72 116.28 101.726 115.32 101.45ZM66.9879 670.419L67.0096 670.846C67.2305 675.426 66.9817 679.351 61.3022 679.321C57.3941 679.738 53.4856 680.145 49.571 680.498L48.1028 680.628C36.4849 681.664 24.7276 682.171 13.1318 680.616L12.6488 680.55C11.6797 680.412 9.88521 680.439 9.11798 679.722C8.19321 678.478 9.26357 676.105 9.48831 674.661C27.5814 674.45 45.6981 673.783 63.8031 674.013C65.7072 674.023 66.5667 672.396 66.3914 670.914C66.6056 670.768 66.8077 670.601 66.9879 670.419ZM250.687 668.122C251.577 671.25 251.357 674.207 250.855 677.339C250.604 680.619 249.043 680.829 246.219 680.906C235.195 681.924 224.091 681.711 213.063 680.858C207.153 680.22 201.079 680.244 195.279 678.937C192.512 677.711 194.109 673.854 194.015 671.49C207.042 679.884 226.743 678.819 240.948 673.962L241.175 673.865C244.535 672.453 248.831 671.564 250.687 668.122ZM229.109 611.639C230.668 613.397 230.638 618.535 230.709 619.96C230.877 623.399 230.85 626.846 230.999 630.285C230.889 644.768 239.253 651.992 245.464 663.636C247.163 666.462 244.691 666.863 242.681 667.78C229.664 673.837 214.267 674.764 200.668 670.126C193.832 668.139 195.325 663.539 195.905 657.912C196.476 646.414 190.426 636.055 188.637 624.933L188.572 624.542C188.036 621.208 187.186 613.029 192.335 614.8C193.468 615.497 194.532 614.623 194.665 613.554C194.8 613.576 194.939 613.589 195.072 613.591C195.674 617.309 196.297 621.021 196.896 624.739C196.392 625.059 195.919 625.421 195.501 625.834C194.992 626.339 195.347 627.397 196.114 627.333C196.508 627.299 196.898 627.24 197.285 627.166C197.592 630.397 202.724 628.584 201.242 625.994C208.621 623.444 216.751 623.648 224.244 625.603L224.275 625.616C224.855 625.846 229.027 626.683 227.685 627.333C227.126 627.401 228.399 628.132 228.622 627.001C228.694 625.58 225.452 624.883 224.459 624.293C226.964 620.707 228.676 616.059 229.109 611.639ZM40.0655 600.285C47.0166 596.52 55.5593 597.917 63.0994 598.583L63.4161 598.619C65.3348 598.826 68.009 598.953 68.8898 600.93C70.1649 604.096 68.0512 611.18 67.3872 614.701L67.0862 615.932C66.5636 618.083 66.0795 620.221 65.8995 622.447C65.8946 622.52 65.9653 622.572 66.031 622.572C68.6721 619.75 69.8591 615.955 71.0929 612.336C71.619 612.636 72.1328 612.961 72.6173 613.318C74.5101 619.823 75.1437 626.749 73.6451 633.385L73.5913 633.619C71.7398 641.819 65.9752 648.525 65.4272 657.095C65.0609 660.56 65.1428 664.11 64.1464 667.474C63.5796 667.6 63.0853 668.018 62.8632 668.543L59.6135 668.547C43.9064 668.574 28.195 668.716 12.4978 669.363C13.0043 664.949 16.9001 661.032 19.644 658.006C28.064 649.382 31.7058 636.995 30.3187 625.056C29.5889 619.083 26.2558 609.699 34.4093 607.493C35.0044 612.361 35.8096 617.212 36.2549 622.099C34.7161 622.842 34.811 624.799 36.6907 624.761C37.5344 627.6 40.3635 626.452 40.0579 623.773C50.4057 619.951 56.3424 618.67 66.423 624.428C66.7052 624.387 65.6485 623.256 65.5148 623.054C62.3293 619.619 57.4364 618.005 52.8459 617.946C48.2959 617.945 44.0168 619.661 39.7246 620.987C39.0792 616.375 38.6446 611.735 38.1335 607.108L38.0226 606.117C37.7545 603.687 37.8522 601.68 40.0655 600.285ZM206.358 659.835C204.843 659.498 203.451 658.986 201.912 659.333C196.497 663.401 218.623 664.548 220.507 664.259C225.303 664.118 230.101 663.509 234.716 662.154L235.071 662.049C235.68 661.879 240.075 660.639 239.221 660.079C232.978 660.632 226.867 661.778 220.507 661.48C217.334 661.413 214.149 661.189 211.011 660.712C209.45 660.473 207.897 660.182 206.358 659.835ZM60.0704 654.796C61.0619 653.31 56.2286 655.283 55.5999 655.3C51.5975 656.287 47.5244 657.036 43.4134 657.346C40.6571 657.556 37.8716 657.6 35.1105 657.464C33.0657 657.394 31.043 657.091 29.0111 656.883L28.938 656.88C27.7307 656.838 25.3119 657.586 26.8027 659.023C29.1209 660.821 32.5512 660.273 35.3296 660.537C43.7677 660.51 52.7027 659.151 60.0704 654.796ZM218.705 643.995C216.272 643.555 202.883 643.411 204.218 647.521C204.541 648.301 205.282 648.56 206.061 648.437C214.348 646.421 223.286 645.367 231.547 648.146C231.68 648.193 231.773 647.974 231.642 647.915C227.58 645.879 223.235 644.456 218.705 643.995ZM44.9084 639.978C42.7225 639.812 40.5234 639.87 38.3361 640.034L37.6247 640.09C36.644 640.167 35.6342 640.256 34.6942 640.542L34.5188 640.598C33.3176 640.985 30.6113 643.049 32.6658 644.042C34.8718 644.756 36.7369 643.907 38.865 643.36C44.7971 641.955 51.0326 642.43 56.9099 643.867L56.082 644.133C56.0309 644.096 55.9652 644.183 56.0139 644.224C56.608 644.744 57.4236 644.559 57.8449 643.914C57.9179 643.803 57.8717 643.626 57.7548 643.565C53.7713 641.474 49.3788 640.317 44.9084 639.978ZM229.664 639.453C222.965 636.487 215.203 636.16 208.019 637.02L207.507 637.082C205.265 637.345 202.342 637.466 201.059 639.554C200.616 640.278 201.074 641.108 201.79 641.369C203.899 642.139 206.377 640.596 208.403 640.022C214.393 638.382 220.79 638.209 226.881 639.342C226.839 639.568 227.847 639.469 228.067 639.549C228.342 639.534 230.17 640.138 229.664 639.453ZM60.7229 634.822C54.8785 631.98 48.1212 631.302 41.8112 632.769L41.5489 632.844C38.7531 633.629 34.2518 634.556 33.2502 637.516C33.0335 638.183 33.5034 639.084 34.2071 639.219C36.5908 639.675 38.7554 637.934 40.9127 637.097C47.2597 634.711 54.4443 634.141 61.0078 635.896C61.0516 636.154 61.0954 636.41 61.1417 636.669C61.0297 636.595 60.9128 636.76 61.0029 636.851C62.0504 637.585 63.14 635.733 60.7229 634.822ZM214.605 629.825C209.876 629.51 205.107 630.112 200.542 631.359L199.683 631.596C198.436 631.946 196.819 632.497 196.638 633.845C196.567 634.382 196.701 634.751 197.137 635.084C198.726 636.273 202.183 633.781 204.159 633.488C211.333 631.333 219.033 631.363 226.3 633.013L226.548 633.07L226.372 634.318C226.2 634.914 227.798 633.508 227.191 632.867C223.354 630.913 218.878 630.177 214.605 629.825ZM56.2647 627.594C52.4693 626.909 48.5541 626.779 44.7167 627.124L44.2634 627.166C41.9719 627.368 34.5474 627.663 36.3034 631.538C36.598 632.186 37.4529 632.269 38.0056 631.989C39.861 631.048 41.8892 630.709 43.937 630.398C51.1671 629.392 58.5538 629.805 65.6122 631.752C65.4588 631.994 65.7754 632.279 66.0749 632.336C66.8199 632.474 66.8199 631.585 66.501 631.112C66.1209 630.553 65.3639 630.349 64.7795 630.103C62.0612 628.918 59.1788 628.117 56.2647 627.594ZM200.012 606.035L200.445 605.933C207.687 604.228 223.745 601.172 225.408 611.151C225.998 615.547 224.052 619.834 224.195 624.187C216.685 621.132 208.38 621.163 200.577 623.183C199.886 618.665 199.226 614.143 198.52 609.627L198.406 609.088C198.092 607.565 197.985 606.374 200.012 606.035ZM216.143 607.852C214.565 606.498 211.933 606.518 210.385 607.995C208.969 608.293 207.971 609.796 207.948 611.085C205.795 614.869 208.391 620.099 212.501 621.043C221.781 623 225.93 610.249 216.143 607.852ZM55.3589 601.813C47.5941 600.426 44.7735 610.28 51.1463 614.276C60.1491 618.793 66.1476 604.591 55.3589 601.813ZM212.301 579.927C212.187 580.681 212.557 581.217 213 581.724C214.592 588.252 216.988 594.327 219.35 600.585C211.665 599.311 204.404 600.423 197.604 602.51C197.523 600.601 196.653 598.621 196.048 596.821C194.872 593.403 193.449 590.072 191.809 586.855L191.602 586.454C191.013 585.309 190.446 584.112 189.749 583.017C197.271 581.99 204.793 581.064 212.301 579.927ZM60.8179 578.536L61.0181 579.445C61.8813 583.385 62.7008 587.362 63.9857 591.19L64.0032 591.27C64.2 592.236 64.6422 596.709 64.9207 593.551C65.135 594.027 65.3639 594.497 65.6073 594.96L64.2787 594.801C57.1705 593.957 49.7262 593.227 42.739 595.016C43.4458 589.537 42.4054 584.303 40.886 579.122C47.5449 578.969 54.1447 579.018 60.8179 578.536ZM186.918 585.346C187.161 585.575 187.4 585.809 187.626 586.052C187.319 585.974 187.012 585.897 186.728 585.831C186.739 585.651 186.866 585.516 186.918 585.346ZM36.8612 580.321L37.0066 580.662C37.0305 580.719 37.0544 580.775 37.0779 580.831C36.9659 580.764 36.8415 580.7 36.7078 580.644C36.7687 580.545 36.8198 580.439 36.8612 580.321ZM158.498 256.113C159.18 256.443 159.891 256.526 160.83 256.566C168.467 256.883 176.079 257.767 183.577 259.276C183.163 265.345 181.318 271.224 179.561 277.009L179.197 278.277C173.263 299.007 168.083 320.669 169.126 342.35C169.068 342.372 169.012 342.402 168.958 342.429C169.053 342.695 169.121 342.967 169.216 343.23L169.277 343.387L169.633 344.272C169.83 344.764 170.022 345.257 170.188 345.762C170.479 345.868 170.837 345.945 171.179 345.994C172.911 357.473 171.264 370.344 163.458 379.32C166.697 372.541 167.941 364.111 166.606 356.708C165.881 357.493 165.829 359.304 165.552 360.48C164.79 364.497 164.255 368.572 163.11 372.506L162.986 372.901C161.702 376.929 159.554 382.125 155.831 384.205C155.129 384.416 154.043 384.153 153.711 385.015C153.519 385.784 153.877 386.734 154.666 386.974L154.721 386.989C156.988 387.632 158.912 385.923 160.365 384.121L160.438 385.062C160.578 386.844 160.772 388.554 161.807 390.02C161.929 390.529 162.048 391.041 162.172 391.551C164.972 408.834 169.184 426.699 176.852 442.298L177.744 444.988C192.322 488.917 207.42 532.818 216.207 578.396C206.975 577.424 197.665 577.894 188.452 578.809C179.763 579.711 170.574 582.114 162.25 578.278C139.699 509.364 116.437 440.657 90.9422 372.794C87.8694 362.023 82.098 351.635 79.2429 340.592L79.0641 340.009C78.3931 337.795 78.0781 336.359 78.5706 333.886L78.5916 333.584C78.6932 332.036 78.7289 329.689 76.9636 329.26C76.6641 329.187 76.2721 329.243 76.0649 329.502C74.9733 330.902 75.9952 332.686 75.6807 334.312C74.7642 340.534 77.2185 346.4 80.0875 351.765C79.9 351.991 79.771 352.269 79.7491 352.574C79.4983 355.881 79.53 359.222 79.3861 362.535C78.9777 372.063 78.3836 381.582 77.6307 391.088C75.2728 408.499 71.9302 425.729 70.114 443.216C65.9791 483.946 66.7227 524.99 63.7201 565.801C63.696 569.386 62.5713 573.112 63.7106 576.591C62.9923 576.119 61.9718 576.225 61.3414 576.796C49.1008 575.948 36.8417 576.364 24.604 575.636C24.5919 575.085 24.5505 574.57 24.5285 574.174C24.8711 573.359 24.3026 572.454 24.3192 571.589C25.8125 563.119 24.5831 554.017 24.8911 545.357C24.8767 537.162 24.8353 528.969 24.7793 520.773C24.3165 469.559 24.9388 418.334 24.0026 367.127C23.9296 364.608 23.8149 362.097 23.652 359.586C24.3257 358.836 23.8765 357.772 23.8758 356.87L23.8363 356.07C23.6315 352.022 23.3987 348.304 24.9766 344.315C24.94 343.84 24.8302 343.394 24.5821 343.03C31.9634 339.567 39.6698 336.945 47.2898 334.093C48.5754 334.411 50.1848 333.611 50.4551 332.227C53.3258 317.49 55.5878 302.66 57.543 287.778C70.3378 296.183 85.9383 297.512 100.467 300.916L103.217 301.63C109.998 303.398 117.112 305.456 122.269 310.274C122.791 317.881 118.917 339.802 130.558 339.229C134.371 340.394 138.291 341.328 142.194 341.831C137.65 350.459 129.361 361.956 135.914 371.511C136.865 372.519 138.143 371.497 139.012 370.871C138.904 376.458 138.755 382.015 138.749 387.597C138.749 388.341 139.516 389.013 140.256 388.759C144.453 387.312 144.972 382.285 145.622 378.491C146.204 375.103 146.789 371.716 147.363 368.326C147.729 374.409 146.266 380.67 147.458 386.684C148.602 390.123 152.156 389.098 153.222 386.215L153.253 386.128C155.361 380.282 156.387 374.039 156.813 367.848L156.836 367.486C156.958 365.607 157.158 363.619 156.693 361.799C155.751 363.571 155.986 366.464 155.547 368.609C154.811 373.192 153.817 377.743 152.42 382.169L152.384 382.325C151.753 384.921 149.28 389.978 149.308 383.624C149.214 380.396 149.491 377.177 149.667 373.956L149.691 373.496C149.92 369.096 149.895 364.655 148.576 360.413C148.24 359.327 146.414 359.123 146.192 360.413C145.305 365.573 144.458 370.738 143.611 375.903C142.993 379.058 143.019 382.616 141.142 385.337C141.12 379.397 141.449 373.474 141.734 367.54L141.791 367.357C142.022 366.6 142.272 365.59 141.741 364.936C141.534 363.582 139.557 363.737 139.389 365.155C139.352 365.45 139.326 365.75 139.296 366.048C138.641 366.871 138.033 367.71 137.258 368.417C132.088 357.855 149.004 339.614 151.339 327.687C158.217 304.461 154.263 280.108 152.262 256.455C154.331 256.21 156.417 256.145 158.498 256.113ZM216.416 579.203C216.495 579.496 216.555 579.817 216.696 580.082C216.584 580.102 216.47 580.124 216.355 580.149C216.217 579.868 216.07 579.595 215.912 579.327C216.08 579.287 216.248 579.248 216.416 579.203ZM130.553 470.423C130.336 470.386 130.248 470.686 130.46 470.755C137.587 473.126 143.594 477.537 149.601 481.915C150.453 482.535 151.249 481.24 150.653 480.538C148.14 477.595 145.064 475.564 141.638 473.854L141.437 473.753C138.01 472.026 134.335 470.926 130.553 470.423ZM62.3056 466.013C62.3884 465.853 62.1692 465.73 62.0694 465.873C60.4819 468.111 58.3806 470.194 56.2939 471.951C54.1804 473.734 51.8746 475.142 49.6126 476.705C48.3927 477.547 49.4397 479.342 50.7643 478.697C53.3404 477.444 55.6535 475.373 57.5454 473.219C59.4957 470.996 60.9396 468.618 62.3056 466.013ZM106.555 388.437C114.42 401.66 126.034 414.976 134.702 428.536C140.555 437.229 145.85 446.294 152.265 454.595C153.548 456.343 156.022 454.883 155.143 452.894C152.703 447.384 149.983 442.091 146.708 437.042L145.652 435.473C134.248 418.567 122.162 401.626 106.555 388.437ZM73.7861 368.257C73.8541 368.036 73.5315 367.939 73.4444 368.134L73.4355 368.158C67.5306 384.358 58.4274 399.086 50.4624 414.277C49.8464 415.52 51.4875 417.019 52.4687 415.842C58.0909 409.097 62.0329 401.162 65.5292 393.131C69.2158 385.171 71.4776 376.692 73.7861 368.257ZM60.0656 122.435C56.4498 129.697 53.7958 137.383 51.9574 145.293C51.391 147.736 54.6642 149.234 55.9866 147.095L56.0261 147.029C57.6524 144.314 60.0758 141.923 63.1432 140.988C65.2333 149.756 64.2148 159.022 63.1289 167.876C61.2034 180.212 59.6709 192.6 59.4418 205.1L59.4308 205.769C58.7597 248.458 52.4907 290.954 45.6243 332.749C34.6474 334.514 24.5982 339.491 14.4798 343.867C12.7218 344.554 10.9249 345.152 9.08389 345.565C14.1677 298.181 33.5018 253.742 39.476 206.53C41.0553 194.252 41.129 181.783 38.9479 169.575C38.9111 169.341 38.5802 169.42 38.5656 169.627C38.326 174.641 37.4689 179.59 36.961 184.578C36.6153 181.729 35.8166 178.844 35.1716 176.114C34.3825 173.443 34.0908 169.155 31.7794 167.414L31.6335 166.909C31.5726 166.692 31.2512 166.783 31.3021 167C31.3267 167.103 31.3511 167.204 31.373 167.308C29.8882 167.703 31.2751 169.465 31.6432 170.309C34.0263 176.708 34.7353 183.635 36.362 190.23C34.0082 210.821 29.7689 231.15 24.548 251.162C19.7508 249.895 14.9378 248.676 10.1287 247.437C20.8558 212.437 14.5833 173.376 30.6549 139.956C36.6764 128.741 51.5053 130.264 60.0656 122.435ZM141.566 116.036C143.816 115.916 146.165 117.139 148.325 117.56C151.188 118.117 154.037 118.557 156.837 119.412C171.17 123.349 184.998 134.102 187.595 149.594C189.379 160.232 184.96 170.597 185.115 181.205C185.582 191.715 189.04 201.816 190.387 212.22C192.009 222.859 192.566 233.994 191.176 244.685C178.319 241.03 164.891 240.801 151.707 242.688C152.806 226.485 151.363 210.201 150.565 194.009C149.99 183.61 149.007 173.164 149.355 162.746C149.362 162.514 148.987 162.458 148.951 162.689C144.997 183.968 147.316 205.57 147.716 227.031C147.969 232.453 147.299 237.926 147.57 243.318C141.576 244.612 141.793 251.616 143.626 256.233C143.95 257.344 145.053 257.151 145.946 257.016C146.913 258.035 149.221 256.706 150.536 256.706C151.565 283.344 157.819 311.797 145.004 336.694C139.646 336.723 134.488 334.871 129.281 333.82L128.997 333.763L128.99 333.761C128.224 332.762 127.85 331.157 127.748 329.982C127.02 309.468 129.297 288.907 127.965 268.39C126.333 245.618 121.264 222.985 123.609 200.058C125.229 179.568 129.679 159.448 131.824 139.019L131.933 137.962C132.067 136.702 132.117 135.311 132.739 134.35C136.358 137.655 139.394 141.584 141.568 146.005C142.772 148.14 145.996 147.19 146.046 144.779C146.509 140.474 146.578 136.153 146.108 131.847L146.065 131.467C145.483 126.078 143.858 120.933 141.566 116.036ZM7.04126 263.875C11.7016 264.122 16.3678 264.64 21.0369 264.579L20.5668 266.347C14.9149 287.555 8.89695 308.725 5.34903 330.425L5.22015 328.39C5.09177 326.355 4.96899 324.319 4.88882 322.279C3.88225 302.777 5.41939 283.3 7.04126 263.875ZM20.6766 263.895L21.2293 263.868L21.1952 263.988C21.0816 263.965 20.9658 263.945 20.85 263.925L20.6766 263.895ZM5.48782 249.572C5.57524 249.545 5.72402 249.545 5.88959 249.552C6.1282 250.103 6.6103 250.559 7.17032 250.709L11.842 251.974C15.7358 253.028 19.6318 254.078 23.5327 255.099C22.8777 257.629 22.2127 260.16 21.541 262.689C16.2207 260.966 10.3301 261.357 4.90564 260.249C4.97235 257.328 5.13136 254.391 5.18103 251.465C5.1932 250.987 5.09581 250.219 5.33929 249.791C5.49245 249.517 5.3393 249.618 5.48782 249.572ZM184.203 259.404L184.349 259.436C184.3 259.569 184.256 259.702 184.215 259.838C184.212 259.692 184.21 259.55 184.203 259.404ZM149.566 245.347C159.59 243.881 169.784 243.015 179.893 244.012C184.466 244.635 189.108 245.298 193.589 246.147C195.148 248.552 193.423 254.404 191.483 256.256C190.901 256.477 189.9 256.046 189.343 255.921C185.159 254.971 180.935 254.206 176.689 253.609C176.562 253.769 176.377 253.872 176.148 253.85L175.173 253.76C169.317 253.223 163.409 252.83 157.541 253.166L157.497 253.2C153.538 253.491 149.592 254.118 145.649 254.572C144.092 250.48 144.361 245.785 149.566 245.347ZM76.6349 111.905C76.2475 113.224 75.782 114.505 75.2032 115.751C74.5988 115.583 73.7654 115.718 73.321 116.1L73.1321 116.066C72.6124 115.967 71.9883 115.815 71.826 115.798C64.6641 114.801 65.2097 124.435 65.1837 129.276C65.1398 131.704 65.0911 134.134 65.0181 136.561C62.9687 135.859 60.228 137.121 58.4366 138.238C59.8391 133.543 61.4875 128.924 63.3259 124.387L63.7441 123.326C65.1744 119.723 66.7755 116.095 69.8026 113.587C72.1421 112.972 74.4084 112.86 76.6349 111.905ZM128.561 109.488C135.218 107.101 137.854 112.526 139.701 117.937C141.877 123.929 142.471 130.527 142.109 136.975L141.885 136.677C139.435 133.394 135.904 127.975 131.439 128.846C131.483 126.355 131.393 123.618 130.918 121.032C131.196 119.362 131.266 117.676 131.074 115.99C130.972 113.875 128.681 114.196 127.173 113.897C125.868 113.023 124.288 112.671 122.7 113.286C121.502 113.126 120.304 112.974 119.106 112.821C118.923 112.415 118.774 112.007 118.619 111.59C121.935 110.901 125.25 110.191 128.561 109.488Z" fill="black"/>
<path fill-rule="evenodd" clip-rule="evenodd" d="M48.4825 56.6672C49.3825 41.9247 54.176 25.2105 68.2838 17.9722C99.3852 5.51542 140.277 36.8851 142.442 68.9317C143.197 79.9015 137.094 91.8883 125.941 94.9381C123.461 98.2167 119.711 100.219 116.01 101.957C71.9257 124.782 43.4491 106.228 48.4825 56.6672Z" fill="white"/>
<path fill-rule="evenodd" clip-rule="evenodd" d="M38.4394 47.4965C39.9974 43.1782 41.6432 38.8931 43.3745 34.6411C45.0606 30.5029 46.5837 26.2753 48.6776 22.3332C61.1838 -1.2114 83.9258 -1.2114 95.6815 1.86499C101.778 -0.756337 113.196 -0.0169265 119.544 2.34849C129.821 6.17787 142.348 21.2417 146.632 28.0098C156.088 42.9531 161.99 62.8422 155.708 80.1098C154.887 82.3666 153.84 84.4568 152.661 86.4712C153.404 87.4756 154.258 88.427 155.205 89.3617C158.019 92.14 160.833 94.8267 163.264 97.9602C165.679 101.074 167.682 104.386 169.172 108.037C171.983 114.923 172.119 122.719 168.402 129.289C165.169 135.006 159.442 139.263 152.989 139.669C152.658 139.715 152.326 139.757 151.993 139.791C151.138 141.196 150.095 142.49 148.905 143.618C145.26 147.079 136.57 148.854 131.614 148.968C131.36 149.171 131.103 149.375 130.847 149.577C127.814 151.959 124.631 154.362 121.15 156.057C118.792 157.206 115.699 158.166 113.239 157.336C112.123 158.081 110.292 157.924 109.185 157.315C107.366 156.315 105.886 154.514 104.986 152.67C102.804 148.193 103.329 143.294 103.889 138.511C104.507 133.228 105.1 127.942 105.704 122.66C106.176 118.528 106.67 114.329 107.929 110.349C108.58 108.287 109.432 106.306 110.534 104.443C110.506 104.287 110.51 104.13 110.555 103.983C110.916 102.812 111.662 102.198 112.546 101.402C112.66 101.3 112.774 101.196 112.885 101.089C113.327 100.587 113.8 100.12 114.305 99.7241C114.5 99.5273 114.693 99.3283 114.885 99.1292C116.483 97.4583 117.994 95.702 119.335 93.8201C120.637 91.9952 121.812 90.0896 122.931 88.1485C124.069 86.1742 124.821 83.9961 125.957 82.036C126.054 81.8677 126.301 81.8346 126.439 81.9744C126.79 82.337 127.016 82.7399 126.973 83.1642L127.149 83.1902C127.215 82.5503 127.807 82.0289 128.609 82.1687C129.811 82.3773 130.799 82.4555 131.839 82.0573C131.656 80.8462 131.488 79.6327 131.322 78.4169C131.018 76.1795 130.735 73.935 130.493 71.6905C129.906 71.8304 129.324 72.0318 128.754 72.2878C127.942 72.6504 127.175 73.1387 126.519 73.7383C125.874 74.3308 125.427 75.1295 124.639 75.5419C123.731 76.0136 122.637 75.2338 122.903 74.2099C123.442 72.1408 126.493 70.9558 128.381 70.5647C129.03 70.4296 129.692 70.3727 130.355 70.387C130.205 68.9459 130.072 67.5049 129.963 66.0615C129.911 65.3789 129.863 64.6964 129.818 64.0114C128.351 63.5682 126.778 63.4355 125.251 63.644C124.748 64.0446 124.244 64.4404 123.757 64.8409C122.211 66.116 120.672 67.3983 119.153 68.7042C119.015 68.8203 118.879 68.9365 118.742 69.055C117.839 69.83 116.714 69.0621 116.866 67.9647C118.105 58.9726 112.586 51.8196 106.124 46.2783C98.9707 40.1421 85.9658 39.4276 77.4589 28.7988C73.5411 29.5946 64.7936 31.9582 61.1838 37.6985C56.13 45.7427 56.7902 52.9501 56.4055 62.075C56.0208 71.207 55.0423 80.7325 57.1204 89.7365C59.0369 98.0389 64.226 105.133 72.2769 108.394C72.4764 108.474 72.6783 108.553 72.8801 108.629C77.0433 110.195 81.5865 110.638 85.9658 109.814C90.813 108.899 94.8598 106.685 98.8924 103.962C99.1251 103.808 99.4647 104.125 99.289 104.358C93.974 111.387 83.5339 113.736 75.2527 111.88C74.8656 111.793 74.4808 111.698 74.0985 111.594C75.9509 116.91 75.578 122.745 73.1651 127.921C71.7141 131.035 69.5007 133.73 66.8052 135.856C63.8342 138.198 60.1483 140.089 58.0869 143.377C56.1989 146.389 56.7594 149.773 59.9916 151.513C60.8062 151.954 61.1197 153.378 60.3122 154.004C60.0035 154.241 59.6947 154.483 59.3789 154.72C57.5692 156.083 52.5986 158.642 51.7935 158.737C44.645 159.583 39.8383 154.345 36.758 148.167C33.1411 140.914 34.0815 132.076 38.0666 125.169C41.2632 119.628 47.559 114.167 45.0559 107.154C44.1629 104.649 42.3366 102.514 40.5626 100.584C38.5392 98.3873 36.3638 96.3301 34.4235 94.0548C32.4951 91.7961 30.7852 89.3383 29.8305 86.5036C28.4364 82.3607 29.1299 77.8812 30.1772 73.7454C32.4215 64.867 35.3355 56.1071 38.4394 47.4965Z" fill="black"/>
<path fill-rule="evenodd" clip-rule="evenodd" d="M91.1246 80.9426C87.0535 80.4495 83.1074 81.6934 79.1275 82.3204C77.0263 82.6512 74.9224 82.8982 72.7959 82.9901C72.3682 83.0088 71.9402 83.0196 71.5122 83.0284C71.4724 82.6524 71.2615 82.3071 70.8046 82.1003C69.8681 81.6766 69.1185 81.4856 68.0903 81.5264C67.149 81.5635 66.2044 81.6601 65.2775 81.8294C63.5945 82.1373 61.9039 82.8361 60.6728 84.0502C57.8236 86.8595 58.2573 91.372 60.4588 94.4319C65.0072 100.755 73.3088 101.048 80.4187 100.966L81.0748 100.957C87.5486 100.865 96.8107 101.828 99.7518 94.4775C100.833 91.7744 100.683 88.6413 99.3589 86.0488C97.7794 82.9566 94.4546 81.346 91.1246 80.9426ZM70.9027 91.4702L70.9608 91.4726C73.9455 91.5874 76.9298 91.6682 79.9162 91.7208C79.8269 92.4862 79.7356 93.2518 79.6314 94.0155C79.5496 94.6166 79.4619 95.2169 79.3707 95.8165C79.3321 96.0703 79.1903 96.4645 79.2304 96.716L79.2449 96.8154C79.0915 96.8846 78.9524 96.9961 78.8489 97.1578C78.8128 97.2138 78.7868 97.2703 78.7607 97.3265C76.4421 97.3446 73.9469 97.2998 71.5833 96.8792L71.5786 96.8279C71.5357 96.5266 71.4101 96.3237 71.2433 96.1846C71.0771 95.2237 71.0923 94.1997 71.0281 93.2464C70.988 92.6541 70.9447 92.0623 70.9027 91.4702ZM82.1971 91.7614C84.3485 91.798 86.5008 91.8261 88.6517 91.7999L89.6281 91.7848C89.4219 92.8888 89.1975 93.9891 89.011 95.1004C88.8164 96.2588 89.838 96.9951 90.7222 96.9654C90.6229 96.9817 90.5239 96.9984 90.4246 97.0124C87.6621 97.4023 84.7937 97.2988 81.9903 97.2958C82.1411 96.4172 82.08 95.4259 82.1025 94.6926L82.1068 94.579C82.1497 93.6393 82.1798 92.7004 82.1971 91.7614ZM96.8102 91.5588C96.7356 92.1329 96.5903 92.6947 96.373 93.2178C95.4547 95.4278 93.3494 96.4591 91.1218 96.8933C91.5083 96.7602 91.8152 96.4402 91.8927 95.892C92.0858 94.5292 92.1552 93.1437 92.1604 91.7598C93.7129 91.7454 95.2758 91.7123 96.8102 91.5588ZM62.8068 91.087C63.9121 91.3472 65.1965 91.228 66.2809 91.2771C67.2968 91.3231 68.3132 91.3633 69.3292 91.4044C69.2813 92.0965 69.2346 92.7885 69.1839 93.4802C69.1185 94.3743 69.1123 95.3191 68.9408 96.2094C66.8961 95.513 65.064 94.3962 63.6896 92.6104C63.3471 92.1655 63.0405 91.6434 62.8068 91.087ZM91.5917 84.5686C93.4316 85.0033 95.1729 85.9218 96.1087 87.602C96.6642 88.5991 96.9086 89.7808 96.8616 90.9453C95.3066 90.7646 93.7247 90.6961 92.1505 90.6395C92.1453 90.3565 92.1386 90.0739 92.1301 89.7919L92.1058 89.0691C92.0629 87.6906 92.0413 85.9595 91.5917 84.5686ZM82.0685 84.7367L82.8784 84.6459C85.1281 84.3901 87.3766 84.1216 89.6264 84.2755C89.952 84.2979 90.2826 84.3334 90.6139 84.3818C90.2163 85.8138 90.2497 87.4957 90.0836 88.9134C90.0193 89.4615 89.9383 90.0051 89.8485 90.5466L89.4582 90.5285C87.0441 90.3979 84.6276 90.3176 82.2116 90.2219C82.2118 89.7692 82.2093 89.3162 82.202 88.8631L82.1931 88.4099C82.1656 87.2525 82.2405 85.9487 82.0685 84.7367ZM70.7712 84.553C73.1275 84.9325 75.5627 85.0133 77.8772 85.0161C78.8017 85.0173 79.7257 84.9606 80.6492 84.8789C80.589 85.3696 80.5577 85.866 80.5124 86.3499C80.4213 87.3278 80.317 88.3041 80.2038 89.2796L80.1027 90.1331C77.1331 89.9988 74.1638 89.8535 71.1949 89.7031L70.7759 89.6807L70.6585 88.0403C70.5786 86.9465 70.4906 85.853 70.3664 84.7641L70.4596 84.7306C70.569 84.6857 70.6728 84.6238 70.7712 84.553ZM69.7479 84.9601C69.6181 86.5067 69.5462 88.0597 69.4507 89.6089L67.4935 89.5045C67.1674 89.4868 66.8412 89.4687 66.5151 89.4499C65.2467 89.377 63.617 88.9937 62.3632 89.3512C62.2674 88.2137 62.5933 87.1054 63.622 86.3412C65.428 84.9989 67.7277 85.4768 69.7479 84.9601ZM76.4349 71.1345C73.5204 69.4688 66.2079 67.7663 65.7448 73.0007C65.5318 75.4094 67.3262 77.4053 69.4215 78.2958L69.5002 78.3287C71.4654 79.135 74.9487 80.0456 76.6493 78.2972C78.0648 76.8419 76.1874 74.2327 74.4286 75.4249C73.5247 76.0373 71.6221 75.586 70.6135 75.2946L70.5504 75.2762C69.462 74.957 68.0109 73.9352 68.4609 72.5978C68.8592 71.4146 70.5539 71.1985 71.6153 71.1601C73.1996 71.1034 74.7414 71.4706 76.3112 71.59C76.5598 71.609 76.6365 71.2497 76.4349 71.1345ZM64.3621 62.7176C60.4065 62.5328 57.9459 66.843 58.8554 70.3747C59.0127 70.9841 59.6957 71.5823 60.355 71.5138L60.5211 71.4985C60.6055 71.4904 60.6902 71.4798 60.7682 71.4583C61.3942 71.2853 61.9554 70.6354 61.9098 69.9618L61.8977 69.7656C61.8054 68.0972 61.9866 66.1751 63.9733 65.771C65.6583 65.4283 66.599 67.0469 66.619 68.5367C66.6228 68.8012 66.9206 68.9858 67.155 68.8436C68.3731 68.1039 68.584 66.6323 68.1187 65.365C67.529 63.7593 66.0533 62.7966 64.3621 62.7176ZM93.7165 63.6421C90.8379 62.6836 87.7323 64.2149 86.3384 66.7547C85.8494 66.896 85.3612 67.2721 85.4291 67.848C85.5272 68.6766 85.6749 69.199 86.2506 69.8273C87.151 70.8102 88.8374 70.3077 89.2116 69.0977L89.2275 69.0431C89.6526 67.479 91.3777 66.4471 92.9492 66.9946C94.785 67.634 94.7318 69.569 96.0195 70.6962C96.1707 70.8287 96.3522 70.8498 96.5336 70.7623C97.9013 70.1027 97.6555 68.1175 97.168 66.9813C96.5284 65.4903 95.2854 64.1642 93.7165 63.6421ZM97.6369 54.9184C95.3043 52.5431 89.2217 50.2445 87.626 54.6309C87.322 55.4663 87.9692 56.5928 88.8407 56.7661C90.2681 57.0496 91.5343 56.4312 92.9522 56.5421C94.0999 56.6324 95.2971 57.0152 96.2148 57.7248C98.7564 59.6901 99.3155 63.0142 101.086 65.5156C101.173 65.6374 101.34 65.5862 101.356 65.4426C101.759 61.8009 100.192 57.5198 97.6369 54.9184ZM67.2156 52.58C65.6677 52.0345 63.9148 52.0811 62.3587 52.5651C60.7913 53.0529 59.3523 53.9791 58.2437 55.1893C57.7407 55.7387 57.2753 56.345 56.9019 56.9903C56.7036 57.3323 56.4951 58.0389 56.2697 58.4596C55.0503 59.1622 54.5292 60.7632 55.6209 61.9022L55.6701 61.9521L55.8161 62.0967C56.403 62.6764 57.2879 62.9277 58.0889 62.6961C59.8815 62.1785 60.0992 60.7695 60.7198 59.2739C61.1297 58.2861 61.832 57.412 62.6834 56.7699C64.6956 55.253 67.9951 54.7698 70.4177 55.4846C70.5466 55.5228 70.6982 55.3588 70.6063 55.2398C70.1472 54.6463 69.8826 54.1592 69.268 53.6805C68.6441 53.1946 67.9632 52.8436 67.2156 52.58Z" fill="black"/>
<path fill-rule="evenodd" clip-rule="evenodd" d="M52.702 73.0835C54.301 75.2273 57.2653 75.9101 59.9996 75.6743C65.8967 75.1078 67.7526 68.4239 67.946 63.2289C63.9915 64.339 68.2803 56.4765 54.7627 55.6118C49.9975 55.2156 51.3112 58.0877 49.2059 60.1861C49.2491 64.5903 49.9837 69.3757 52.702 73.0835ZM80.7901 68.0229C84.2717 84.2943 103.337 80.424 105.34 65.7563C103.49 64.4537 103.977 61.2373 101.68 60.0719C98.0387 57.7502 93.487 57.8495 89.3521 57.904C84.0667 58.2664 82.5606 60.4514 79.8456 62.8352C79.9762 64.4274 80.3529 66.3145 80.7901 68.0229ZM45.1496 52.917C45.345 52.8846 45.5407 52.854 45.7364 52.8253C45.8891 52.7388 46.0684 52.6722 46.2769 52.6322C46.7531 52.5115 47.226 52.4302 47.6981 52.3864C54.4741 50.8645 70.1501 53.0254 70.797 58.7961C72.9548 59.5149 74.822 58.8712 77.323 58.9352C79.2267 50.9942 112.139 52.115 113.722 56.9026C113.727 56.9009 113.733 56.8995 113.74 56.8976C115.26 56.4279 117.503 56.5412 119.243 56.4667C122.96 56.389 126.682 56.7196 130.318 57.502C137.128 58.5821 146.422 59.8465 141.686 68.3334C141.685 68.3348 141.685 68.3364 141.683 68.3379L141.683 68.3372C140.866 69.1721 139.481 68.4997 139.43 67.3694C141.022 63.3488 137.425 62.866 134.658 61.7106C127.773 59.2419 120.762 58.8996 113.641 59.6633C113.105 60.2928 112.292 60.8417 111.433 61.129C106.672 61.9177 109.181 65.4425 106.171 65.9552C106.724 78.2423 91.7764 84.9492 83.1153 76.8721C79.6573 73.498 78.8329 68.4997 78.0312 63.9944C77.6073 63.8994 77.3377 63.6681 77.1803 63.3618C76.1607 62.346 75.5202 61.4079 73.5042 61.129C71.4881 60.8502 69.9361 61.4098 69.7262 61.5812C69.6732 61.6876 69.6165 61.7943 69.5504 61.9009C69.4583 62.0599 69.3329 62.1867 69.1904 62.2865C71.1813 74.5219 61.6634 82.2598 52.0548 75.9139C47.8798 71.9945 46.9975 65.9938 46.8232 60.6379C46.2572 60.2971 45.8989 59.6365 46.0948 58.806C46.3648 57.6613 45.7317 56.6701 44.7233 56.1724C43.4131 55.526 43.6448 53.1657 45.1496 52.917Z" fill="black"/>
</svg>
