<svg width="35" height="35" viewBox="0 0 35 35" fill="none" xmlns="http://www.w3.org/2000/svg">
<path d="M0.53418 34.8589H9.59665V11.0279H0.53418V34.8589ZM2.58496 13.0787H7.54587V32.808H2.58496V13.0787Z" fill="#3D3D3D"/>
<path d="M5.06536 0.141174C2.27227 0.141174 0 2.41351 0 5.20654C0 7.99956 2.27227 10.272 5.06536 10.272C7.85846 10.272 10.1308 7.99963 10.1308 5.20654C10.1308 2.41344 7.85839 0.141174 5.06536 0.141174V0.141174ZM2.05078 5.20654C2.05078 3.54431 3.40307 2.19196 5.06536 2.19196C6.72766 2.19196 8.08001 3.54424 8.08001 5.20654C8.08001 6.86883 6.72766 8.22118 5.06536 8.22118C3.40307 8.22118 2.05078 6.86876 2.05078 5.20654V5.20654Z" fill="#3D3D3D"/>
<path d="M34.9781 18.5111C34.6556 13.8725 30.7865 10.2981 25.9896 10.2981C23.844 10.2981 21.8186 11.044 20.2228 12.3676V11.0278H11.5391V34.8587H20.6016V21.8251C20.6016 20.3562 21.7966 19.1611 23.2656 19.1611C24.7344 19.1611 25.9295 20.3562 25.9295 21.8257L25.9382 34.8588H35.0001V18.5331L34.9781 18.5111ZM18.5508 32.8081H13.5898V13.0786H18.1719V16.0076L19.8129 16.017L20.1178 15.5437C21.4063 13.5432 23.6014 12.3489 25.9896 12.3489C29.8065 12.3489 32.8627 15.2612 32.9472 18.9788L32.9493 32.8081H27.9876L27.9802 21.8251C27.9802 19.2254 25.8652 17.1103 23.2656 17.1103C20.6659 17.1103 18.5508 19.2254 18.5508 21.8251V32.8081Z" fill="#3D3D3D"/>
</svg>
