<svg width="21" height="22" viewBox="0 0 21 22" fill="none" xmlns="http://www.w3.org/2000/svg">
<path fill-rule="evenodd" clip-rule="evenodd" d="M-2.03078 33.1543C-2.81212 32.6825 -3.60325 32.2694 -4.24018 31.5863C-5.42687 30.3113 -6.70073 29.1169 -7.79563 27.7584C-8.94675 26.3303 -10.1654 24.9225 -10.8601 23.2481C-10.7869 22.5869 -9.97718 23.2892 -9.96171 22.509C-9.95707 22.2863 -9.44391 22.0712 -9.15923 21.86C-8.45267 21.3355 -8.05814 21.2477 -7.54344 21.8304C-7.03545 22.4059 -6.44803 22.6122 -5.78325 22.762C-4.75643 22.9935 -4.04781 23.8324 -3.16901 24.3486C-2.22883 24.9006 -1.55889 25.7894 -0.79509 26.5613C-0.399524 26.9607 0.0919688 27.2674 0.431836 27.7096C0.773766 28.1546 1.08785 28.6895 1.20905 29.2365C1.28228 29.5695 1.04711 30.0721 0.807806 30.3689C0.512291 30.7348 0.372529 31.2632 -0.14475 31.4404C-0.443875 31.5424 -0.401586 31.8979 -0.459863 32.1909C-0.526909 32.5272 -0.615097 32.9365 -1.16384 32.5141C-1.54754 32.2194 -1.87039 32.6375 -2.03078 33.1543Z" fill="black"/>
<path fill-rule="evenodd" clip-rule="evenodd" d="M7.82992 10.1025C8.05684 10.1848 8.27603 10.2638 8.52719 10.3549C8.57824 9.0963 7.35545 8.74353 7.18526 7.5848C7.43281 7.70111 7.63445 7.75048 7.78041 7.87393C8.01455 8.07254 8.21156 8.31943 8.50347 8.62996C8.40393 7.99902 8.33791 7.85418 7.99959 7.4224C8.73915 6.47105 8.73915 6.47105 9.61229 6.46776C10.0924 7.04328 10.5024 7.8015 11.1177 8.20092C11.7969 8.64257 11.997 9.39642 12.4978 9.93683C12.9764 10.4542 13.2941 11.1587 13.6113 11.8198C13.7856 12.1819 13.9336 12.6444 13.8769 13.0251C13.8047 13.5063 13.6118 14.2135 13.292 14.3501C12.766 14.5756 12.8836 14.9712 12.718 15.3113C12.4911 15.776 12.1806 16.2281 11.6113 16.328C11.2786 16.3861 10.8825 16.6561 10.6386 16.5392C10.045 16.2544 9.43178 15.8918 8.99289 15.3942C8.16463 14.4549 7.42404 13.4218 6.71542 12.375C6.53749 12.1127 6.6195 11.6519 6.56689 11.1334C6.8031 11.3364 6.89696 11.4165 7.09603 11.5871C6.99288 10.824 7.62002 10.5623 7.82992 10.1025Z" fill="black"/>
</svg>
