<svg width="35" height="35" viewBox="0 0 35 35" fill="none" xmlns="http://www.w3.org/2000/svg">
<g clip-path="url(#clip0)">
<path d="M35 7.03859C32.7983 7.14006 32.8464 7.13178 32.5975 7.15261L33.9014 3.42889C33.9014 3.42889 29.8314 4.92612 28.7996 5.19395C26.0898 2.75838 22.0619 2.65077 19.1823 4.42064C16.8241 5.87034 15.5584 8.35985 15.9806 11.2697C11.3912 10.6328 7.52434 8.45731 4.4714 4.78994L3.50582 3.63023L2.78431 4.95523C1.87241 6.6295 1.5696 8.54383 1.93142 10.3455C2.07989 11.0846 2.33223 11.7896 2.68177 12.4497L1.85345 12.1287L1.75518 13.5127C1.65558 14.9186 2.12368 16.5598 3.00755 17.9024C3.25642 18.2805 3.57685 18.6957 3.983 19.1054L3.55495 19.0397L4.07726 20.6255C4.76379 22.7092 6.18973 24.3212 8.04024 25.2174C6.19213 26.0016 4.69917 26.502 2.24518 27.3093L0 28.0473L2.07375 29.1811C2.86442 29.6135 5.65834 31.0573 8.41888 31.4904C14.5552 32.4528 21.464 31.6691 26.1151 27.4802C30.0327 23.9519 31.3182 18.9331 31.0512 13.7103C31.0109 12.9196 31.2274 12.165 31.6611 11.5858C32.5297 10.4261 34.9947 7.04633 35 7.03859V7.03859ZM30.0212 10.3575C29.3011 11.3191 28.9403 12.5471 29.0049 13.815C29.2744 19.0832 27.841 23.1687 24.7442 25.9576C21.1268 29.2156 15.2919 30.4944 8.73638 29.4661C7.54917 29.2799 6.32217 28.8631 5.30666 28.4468C7.36412 27.7389 8.95294 27.1079 11.5188 25.8935L15.1007 24.1981L11.146 23.945C9.25175 23.8237 7.67441 22.9057 6.70483 21.4151C7.21966 21.3852 7.71606 21.3019 8.21033 21.1641L11.9821 20.1137L8.17882 19.1823C6.33072 18.7296 5.27729 17.6239 4.71893 16.7758C4.3523 16.2185 4.11278 15.6476 3.96912 15.1213C4.35043 15.2236 4.79504 15.2965 5.51201 15.3675L9.03225 15.7157L6.24313 13.5399C4.23347 11.9725 3.42812 9.61755 4.01852 7.35368C10.2905 13.859 17.6546 13.3701 18.3959 13.5421C18.2327 11.9573 18.2285 11.9535 18.1857 11.8026C17.2364 8.4469 19.3169 6.74299 20.2552 6.1662C22.2152 4.96164 25.3263 4.78006 27.4813 6.76462C27.9467 7.19293 28.5761 7.36142 29.1652 7.21509C29.6939 7.08371 30.1278 6.94459 30.5526 6.79319L29.6682 9.31875L30.7972 9.31955C30.5841 9.60527 30.3286 9.94733 30.0212 10.3575Z" fill="#3D3D3D"/>
</g>
<defs>
<clipPath id="clip0">
<rect width="35" height="35" fill="white"/>
</clipPath>
</defs>
</svg>
